# xmcd
#
# Track frame offsets: 
#        150
#        22712
#        43655
#        62793
#        78147
#        98886
#        116677
#        136086
#
# Disc length: 2034 seconds
#
# Revision: 0
# Processed by: cddbd v1.5.1PL0 Copyright (c) Steve Scherf et al.
# Submitted via: ExactAudioCopy v0.95a4
#
DISCID=5907f008
DTITLE=Van Morrison - Liverpool june 4
DYEAR=2004
DGENRE=Celtic
TTITLE0=Inarticulate Speech Of The Heart No. 1
TTITLE1=All Work And No Play
TTITLE2=Have I Told You Lately
TTITLE3=Bring It On Home To Me
TTITLE4=Back On Top
TTITLE5=You Make Me Feel So Free
TTITLE6=Sometimes We Cry
TTITLE7=Jackie Wilson Said ...
EXTD=
EXTT0=
EXTT1=
EXTT2=
EXTT3=
EXTT4=
EXTT5=
EXTT6=
EXTT7=
PLAYORDER=
